<svg xmlns="http://www.w3.org/2000/svg" width="50.945" height="76.646" viewBox="0 0 50.945 76.646">
  <g id="Group_732" data-name="Group 732" transform="translate(-539 -3408.2)">
    <g id="Group_370" data-name="Group 370">
      <g id="Group_264" data-name="Group 264" transform="translate(539 3457.458)">
        <path id="Path_53" data-name="Path 53" d="M84.954,20.627a2.914,2.914,0,0,1-.251,1.319,3.832,3.832,0,0,1-.754,1.005,4.823,4.823,0,0,1-1.131.628,3.664,3.664,0,0,1-1.445.188,3.226,3.226,0,0,1-1.005-.126V27.6H79.3V17.988a6.189,6.189,0,0,1,1.068-.126c.377,0,.754-.063,1.194-.063a3.82,3.82,0,0,1,2.576.754A2.793,2.793,0,0,1,84.954,20.627Zm-1.068.126a1.708,1.708,0,0,0-.628-1.508,2.859,2.859,0,0,0-1.7-.5,5.782,5.782,0,0,0-1.194.126v3.957a4.51,4.51,0,0,0,1.068.126,2.748,2.748,0,0,0,1.822-.565A2.388,2.388,0,0,0,83.886,20.752Z" transform="translate(-79.3 -17.8)" fill="#fff"/>
        <path id="Path_54" data-name="Path 54" d="M93.766,23.305H93.39a1.266,1.266,0,0,0-.691.188,2.035,2.035,0,0,0-.565.5,4.182,4.182,0,0,0-.377.754,4.274,4.274,0,0,0-.126.942v3.769H90.563v-5.9a6.1,6.1,0,0,0-.063-1.068h.942V23.87h.063a3.565,3.565,0,0,1,.754-1.131,1.983,1.983,0,0,1,1.194-.44h.314v1.005Z" transform="translate(-83.464 -19.473)" fill="#fff"/>
        <path id="Path_55" data-name="Path 55" d="M102.73,25.4a1.394,1.394,0,0,1-.063.565H97.831a3.139,3.139,0,0,0,.628,1.947,2.364,2.364,0,0,0,1.759.691,4.59,4.59,0,0,0,1.885-.377l.188.817a5.015,5.015,0,0,1-2.261.44,3.2,3.2,0,0,1-1.382-.251,3.285,3.285,0,0,1-1.068-.754,2.512,2.512,0,0,1-.628-1.131,4.948,4.948,0,0,1-.251-1.445,3.8,3.8,0,0,1,.251-1.508,3.6,3.6,0,0,1,.628-1.194,3.024,3.024,0,0,1,1.005-.754A2.913,2.913,0,0,1,99.9,22.2a2.549,2.549,0,0,1,1.194.251,3.055,3.055,0,0,1,.879.691,3.186,3.186,0,0,1,.565,1.005A3.777,3.777,0,0,1,102.73,25.4Zm-1.131-.251a2.341,2.341,0,0,0-.44-1.57,1.622,1.622,0,0,0-1.319-.565,1.5,1.5,0,0,0-1.319.628,2.543,2.543,0,0,0-.628,1.57l3.706-.063Z" transform="translate(-85.77 -19.436)" fill="#fff"/>
        <path id="Path_56" data-name="Path 56" d="M118.4,29.261h-1.068v-4.02c0-1.445-.5-2.2-1.57-2.2a2.672,2.672,0,0,0-.691.126,1.693,1.693,0,0,0-.5.44l-.377.565a2.671,2.671,0,0,0-.126.691V29.2H113V24.927a2.257,2.257,0,0,0-.377-1.382,1.395,1.395,0,0,0-1.822-.377,3.453,3.453,0,0,0-.565.44,5.523,5.523,0,0,0-.377.628,3.241,3.241,0,0,0-.126.691V29.2h-1.068V23.231a4.755,4.755,0,0,0-.063-.942h.942v1.131h.126a2.3,2.3,0,0,1,2.2-1.256,1.933,1.933,0,0,1,1.194.377,2.5,2.5,0,0,1,.754,1.005h0a3.127,3.127,0,0,1,.942-1.068,2.322,2.322,0,0,1,1.319-.377,1.841,1.841,0,0,1,1.633.817,3.278,3.278,0,0,1,.628,2.2l.063,4.146Z" transform="translate(-90.195 -19.399)" fill="#fff"/>
        <path id="Path_57" data-name="Path 57" d="M128.745,18.654a.877.877,0,0,1-.188.565.768.768,0,0,1-.565.188.713.713,0,0,1-.5-.188.768.768,0,0,1-.188-.565,1.013,1.013,0,0,1,.188-.565.713.713,0,0,1,.5-.188.877.877,0,0,1,.565.188A.768.768,0,0,1,128.745,18.654Zm-.188,9.046h-1.068V20.727h1.068Z" transform="translate(-97.148 -17.837)" fill="#fff"/>
        <path id="Path_58" data-name="Path 58" d="M137.311,29.41V28.279h-.126a2.446,2.446,0,0,1-2.261,1.319,1.985,1.985,0,0,1-1.7-.754,3.731,3.731,0,0,1-.628-2.261V22.5h1.068v3.895c0,1.57.5,2.324,1.57,2.324a2.258,2.258,0,0,0,.691-.126,1.782,1.782,0,0,0,.565-.377,1.3,1.3,0,0,0,.377-.628,1.594,1.594,0,0,0,.126-.754V22.5h1.068v6.093a4.755,4.755,0,0,0,.063.942h-.817Z" transform="translate(-99.118 -19.548)" fill="#fff"/>
        <path id="Path_59" data-name="Path 59" d="M154.6,29.261h-1.068v-4.02c0-1.445-.5-2.2-1.57-2.2a2.672,2.672,0,0,0-.691.126,1.693,1.693,0,0,0-.5.44l-.377.565a2.671,2.671,0,0,0-.126.691V29.2H149.2V24.927a2.257,2.257,0,0,0-.377-1.382A1.395,1.395,0,0,0,147,23.168a3.452,3.452,0,0,0-.565.44,5.524,5.524,0,0,0-.377.628,3.242,3.242,0,0,0-.126.691V29.2h-1.068V23.231a4.754,4.754,0,0,0-.063-.942h.942v1.131h.126a2.3,2.3,0,0,1,2.2-1.256,1.933,1.933,0,0,1,1.194.377,2.5,2.5,0,0,1,.754,1.005h0a3.127,3.127,0,0,1,.942-1.068,2.322,2.322,0,0,1,1.319-.377,1.841,1.841,0,0,1,1.633.817,3.278,3.278,0,0,1,.628,2.2v4.146Z" transform="translate(-103.655 -19.399)" fill="#fff"/>
      </g>
      <g id="Group_265" data-name="Group 265" transform="translate(542 3474.419)">
        <path id="Path_60" data-name="Path 60" d="M84.063,55.3a17.742,17.742,0,0,1-.628-2.324,2.816,2.816,0,0,0-.691-1.508,1.77,1.77,0,0,0-1.319-.44H80.168V55.3H79.1V45.688a12.663,12.663,0,0,1,2.261-.188,4.342,4.342,0,0,1,2.576.628,2.31,2.31,0,0,1,.879,1.947,2.492,2.492,0,0,1-1.822,2.513v.063a2.574,2.574,0,0,1,1.445,2.01,12.021,12.021,0,0,0,.754,2.638Zm-.251-7.036c0-1.256-.754-1.885-2.324-1.885a5.962,5.962,0,0,0-1.256.126v3.706H81.55a2.534,2.534,0,0,0,1.633-.5A2.164,2.164,0,0,0,83.811,48.264Z" transform="translate(-79.1 -45.06)" fill="#fff"/>
        <path id="Path_61" data-name="Path 61" d="M96.23,53a1.394,1.394,0,0,1-.063.565H91.331a3.139,3.139,0,0,0,.628,1.947,2.364,2.364,0,0,0,1.759.691A4.59,4.59,0,0,0,95.6,55.83l.188.817a5.015,5.015,0,0,1-2.261.44,3.2,3.2,0,0,1-1.382-.251,3.285,3.285,0,0,1-1.068-.754,2.513,2.513,0,0,1-.628-1.131,4.947,4.947,0,0,1-.251-1.445A3.8,3.8,0,0,1,90.451,52a3.6,3.6,0,0,1,.628-1.194,3.024,3.024,0,0,1,1.005-.754A2.914,2.914,0,0,1,93.4,49.8a2.549,2.549,0,0,1,1.194.251,3.055,3.055,0,0,1,.879.691,3.186,3.186,0,0,1,.565,1.005A3.777,3.777,0,0,1,96.23,53Zm-1.068-.251a2.341,2.341,0,0,0-.44-1.57,1.622,1.622,0,0,0-1.319-.565,1.5,1.5,0,0,0-1.319.628,2.543,2.543,0,0,0-.628,1.57l3.706-.063Z" transform="translate(-83.227 -46.659)" fill="#fff"/>
        <path id="Path_62" data-name="Path 62" d="M105.8,54.914a1.911,1.911,0,0,1-.691,1.508,2.748,2.748,0,0,1-1.822.565,3.663,3.663,0,0,1-1.885-.5l.314-.879a3.114,3.114,0,0,0,1.633.5,1.6,1.6,0,0,0,1.005-.314,1.013,1.013,0,0,0,.377-.817,1.04,1.04,0,0,0-.314-.754,3.549,3.549,0,0,0-1.005-.565c-1.194-.5-1.822-1.131-1.822-1.947a1.739,1.739,0,0,1,.188-.817,2.257,2.257,0,0,1,.44-.628,2.594,2.594,0,0,1,.691-.44,2.442,2.442,0,0,1,.942-.126,2.768,2.768,0,0,1,1.633.44l-.314.817a2.69,2.69,0,0,0-1.382-.377,1.243,1.243,0,0,0-.879.314,1.04,1.04,0,0,0-.314.754.8.8,0,0,0,.063.377c.063.126.126.188.188.314.126.126.251.188.377.314a5.836,5.836,0,0,0,.628.314C105.169,53.343,105.8,54.034,105.8,54.914Z" transform="translate(-87.392 -46.622)" fill="#fff"/>
        <path id="Path_63" data-name="Path 63" d="M116.13,53a1.394,1.394,0,0,1-.063.565h-4.837a3.139,3.139,0,0,0,.628,1.947,2.364,2.364,0,0,0,1.759.691,4.59,4.59,0,0,0,1.885-.377l.188.817a5.015,5.015,0,0,1-2.261.44,3.2,3.2,0,0,1-1.382-.251,3.285,3.285,0,0,1-1.068-.754,2.513,2.513,0,0,1-.628-1.131,4.947,4.947,0,0,1-.251-1.445A3.8,3.8,0,0,1,110.351,52a3.6,3.6,0,0,1,.628-1.194,3.024,3.024,0,0,1,1.005-.754A2.914,2.914,0,0,1,113.3,49.8a2.549,2.549,0,0,1,1.194.251,3.055,3.055,0,0,1,.879.691,3.186,3.186,0,0,1,.565,1.005A3.777,3.777,0,0,1,116.13,53Zm-1.068-.251a2.341,2.341,0,0,0-.44-1.57,1.622,1.622,0,0,0-1.319-.565,1.5,1.5,0,0,0-1.319.628,2.543,2.543,0,0,0-.628,1.57l3.706-.063Z" transform="translate(-90.627 -46.659)" fill="#fff"/>
        <path id="Path_64" data-name="Path 64" d="M123.368,55.039H122.3V44.8h1.068V55.039Z" transform="translate(-95.163 -44.8)" fill="#fff"/>
        <path id="Path_65" data-name="Path 65" d="M128.468,55.039H127.4V44.8h1.068Z" transform="translate(-97.059 -44.8)" fill="#fff"/>
        <path id="Path_66" data-name="Path 66" d="M137.63,53a1.394,1.394,0,0,1-.063.565h-4.837a3.138,3.138,0,0,0,.628,1.947,2.364,2.364,0,0,0,1.759.691A4.59,4.59,0,0,0,137,55.83l.188.817a5.015,5.015,0,0,1-2.261.44,3.2,3.2,0,0,1-1.382-.251,3.285,3.285,0,0,1-1.068-.754,2.513,2.513,0,0,1-.628-1.131,4.947,4.947,0,0,1-.251-1.445A3.8,3.8,0,0,1,131.851,52a3.6,3.6,0,0,1,.628-1.194,3.024,3.024,0,0,1,1.005-.754A2.913,2.913,0,0,1,134.8,49.8a2.549,2.549,0,0,1,1.194.251,3.055,3.055,0,0,1,.879.691,3.186,3.186,0,0,1,.565,1.005A3.777,3.777,0,0,1,137.63,53Zm-1.068-.251a2.341,2.341,0,0,0-.44-1.57,1.622,1.622,0,0,0-1.319-.565,1.5,1.5,0,0,0-1.319.628,2.543,2.543,0,0,0-.628,1.57l3.706-.063Z" transform="translate(-98.621 -46.659)" fill="#fff"/>
        <path id="Path_67" data-name="Path 67" d="M146.966,50.905h-.377a1.266,1.266,0,0,0-.691.188,2.035,2.035,0,0,0-.565.5,4.183,4.183,0,0,0-.377.754,4.274,4.274,0,0,0-.126.942v3.769h-1.068v-5.9a6.094,6.094,0,0,0-.063-1.068h.942V51.47h.063a3.565,3.565,0,0,1,.754-1.131,1.983,1.983,0,0,1,1.194-.44h.314v1.005Z" transform="translate(-103.12 -46.696)" fill="#fff"/>
      </g>
      <path id="Path_68" data-name="Path 68" d="M33.932,29.047A22.264,22.264,0,0,1,31.168,34.7c-1.633,2.45-3.392,4.837-6.093,4.9-2.638.063-3.518-1.57-6.533-1.57s-4.02,1.508-6.533,1.633c-2.638.126-4.586-2.638-6.282-5.025C2.335,29.738-.3,20.693,3.214,14.662A9.761,9.761,0,0,1,11.443,9.7c2.576-.063,4.963,1.7,6.533,1.7s4.523-2.136,7.6-1.822a9.291,9.291,0,0,1,7.287,3.957,8.91,8.91,0,0,0-4.272,7.538,8.891,8.891,0,0,0,5.339,7.978M23.567,6.245A8.824,8.824,0,0,0,25.64-.1a8.819,8.819,0,0,0-7.978,9.171A7.442,7.442,0,0,0,23.567,6.245Z" transform="translate(546.452 3408.3)" fill="#fff"/>
    </g>
  </g>
</svg>
