<svg xmlns="http://www.w3.org/2000/svg" width="89.326" height="75.202" viewBox="0 0 89.326 75.202">
  <g id="Group_731" data-name="Group 731" transform="translate(-1335 -3408.2)">
    <g id="Group_279" data-name="Group 279" transform="translate(1335 3457.081)">
      <path id="Path_123" data-name="Path 123" d="M82.554,24.987a2.151,2.151,0,0,1-.251,1.131,4.459,4.459,0,0,1-.628.879,2.62,2.62,0,0,1-1.005.565,4.6,4.6,0,0,1-1.382.188,3.849,3.849,0,0,1-2.387-.628l.314-.879a4.235,4.235,0,0,0,2.136.628,2.351,2.351,0,0,0,1.57-.5,1.581,1.581,0,0,0,.565-1.256,1.564,1.564,0,0,0-.44-1.194,4.007,4.007,0,0,0-1.382-.817c-1.7-.628-2.513-1.57-2.513-2.764A2.219,2.219,0,0,1,77.4,19.27a2.591,2.591,0,0,1,.628-.817,2.365,2.365,0,0,1,.942-.565,3.657,3.657,0,0,1,1.194-.188,4.216,4.216,0,0,1,2.073.44l-.314.879a3.187,3.187,0,0,0-1.759-.44,2.03,2.03,0,0,0-1.382.44,1.225,1.225,0,0,0-.5,1.131,1.394,1.394,0,0,0,.063.565,2.2,2.2,0,0,0,.314.5,1.368,1.368,0,0,0,.565.44,6.748,6.748,0,0,0,.942.44,9.451,9.451,0,0,1,1.131.565,3.984,3.984,0,0,1,.754.628,4.685,4.685,0,0,1,.44.754C82.491,24.359,82.554,24.673,82.554,24.987Z" transform="translate(-76.9 -17.386)" fill="#fff"/>
      <path id="Path_124" data-name="Path 124" d="M94.459,25.681a3.8,3.8,0,0,1-.251,1.508,4.548,4.548,0,0,1-.691,1.194,3.285,3.285,0,0,1-1.068.754,3.381,3.381,0,0,1-1.382.251,2.914,2.914,0,0,1-1.319-.251,3.024,3.024,0,0,1-1.005-.754,3.42,3.42,0,0,1-.691-1.131,3.685,3.685,0,0,1-.251-1.445,4,4,0,0,1,.251-1.508,4.548,4.548,0,0,1,.691-1.194,2.558,2.558,0,0,1,1.068-.754,3.38,3.38,0,0,1,1.382-.251,2.914,2.914,0,0,1,1.319.251,3.024,3.024,0,0,1,1.005.754,2.513,2.513,0,0,1,.628,1.131A3.99,3.99,0,0,1,94.459,25.681Zm-1.194.063a5.532,5.532,0,0,0-.126-1.068,3.838,3.838,0,0,0-.44-.879,1.964,1.964,0,0,0-.691-.565,2.146,2.146,0,0,0-1.759,0,1.964,1.964,0,0,0-.691.565,3.838,3.838,0,0,0-.44.879,3.119,3.119,0,0,0-.126,1.131,2.934,2.934,0,0,0,.188,1.068,3.838,3.838,0,0,0,.44.879,3.293,3.293,0,0,0,.691.628,2.045,2.045,0,0,0,.879.251,2.006,2.006,0,0,0,.879-.188,1.628,1.628,0,0,0,.691-.628,3.838,3.838,0,0,0,.44-.879A8.01,8.01,0,0,0,93.265,25.743Z" transform="translate(-80.953 -19.022)" fill="#fff"/>
      <path id="Path_125" data-name="Path 125" d="M102.068,27.439H101V17.2h1.068Z" transform="translate(-85.861 -17.2)" fill="#fff"/>
      <path id="Path_126" data-name="Path 126" d="M110.711,29.41V28.279h-.126a2.446,2.446,0,0,1-2.261,1.319,1.985,1.985,0,0,1-1.7-.754A3.73,3.73,0,0,1,106,26.583V22.5h1.068v3.895c0,1.57.5,2.324,1.57,2.324a2.258,2.258,0,0,0,.691-.126,1.782,1.782,0,0,0,.565-.377,1.3,1.3,0,0,0,.377-.628,1.593,1.593,0,0,0,.126-.754V22.5h1.068v6.093a4.754,4.754,0,0,0,.063.942h-.817Z" transform="translate(-87.72 -19.171)" fill="#fff"/>
      <path id="Path_127" data-name="Path 127" d="M121.158,22.25h-1.822v3.957c0,.942.314,1.382.942,1.382a2.343,2.343,0,0,0,.754-.126l.063.879a2.707,2.707,0,0,1-1.068.188,1.8,1.8,0,0,1-1.319-.5,2.688,2.688,0,0,1-.44-1.759V22.313H117.2v-.879h1.068V20.177l1.068-.377v1.633h1.822Z" transform="translate(-91.885 -18.167)" fill="#fff"/>
      <path id="Path_128" data-name="Path 128" d="M126.945,18.654a.877.877,0,0,1-.188.565.768.768,0,0,1-.565.188.713.713,0,0,1-.5-.188.768.768,0,0,1-.188-.565,1.013,1.013,0,0,1,.188-.565.713.713,0,0,1,.5-.188.877.877,0,0,1,.565.188A.768.768,0,0,1,126.945,18.654Zm-.188,9.046h-1.068V20.727h1.068Z" transform="translate(-94.971 -17.46)" fill="#fff"/>
      <path id="Path_129" data-name="Path 129" d="M136.659,25.681a3.8,3.8,0,0,1-.251,1.508,4.548,4.548,0,0,1-.691,1.194,3.285,3.285,0,0,1-1.068.754,3.381,3.381,0,0,1-1.382.251,2.914,2.914,0,0,1-1.319-.251,3.024,3.024,0,0,1-1.005-.754,3.419,3.419,0,0,1-.691-1.131A3.685,3.685,0,0,1,130,25.806a4,4,0,0,1,.251-1.508,4.548,4.548,0,0,1,.691-1.194,2.558,2.558,0,0,1,1.068-.754,3.381,3.381,0,0,1,1.382-.251,2.914,2.914,0,0,1,1.319.251,3.024,3.024,0,0,1,1.005.754,2.512,2.512,0,0,1,.628,1.131A3.012,3.012,0,0,1,136.659,25.681Zm-1.131.063a5.533,5.533,0,0,0-.126-1.068,3.838,3.838,0,0,0-.44-.879,1.964,1.964,0,0,0-.691-.565,2.146,2.146,0,0,0-1.759,0,1.963,1.963,0,0,0-.691.565,3.837,3.837,0,0,0-.44.879,3.119,3.119,0,0,0-.126,1.131,2.935,2.935,0,0,0,.188,1.068,3.837,3.837,0,0,0,.44.879,3.293,3.293,0,0,0,.691.628,2.045,2.045,0,0,0,.879.251,2.006,2.006,0,0,0,.879-.188,1.628,1.628,0,0,0,.691-.628,3.838,3.838,0,0,0,.44-.879C135.465,26.5,135.528,26.12,135.528,25.743Z" transform="translate(-96.644 -19.022)" fill="#fff"/>
      <path id="Path_130" data-name="Path 130" d="M148.854,29.261h-1.131V25.178c0-1.445-.565-2.136-1.633-2.136a2.258,2.258,0,0,0-.691.126,1.266,1.266,0,0,0-.565.44,1.3,1.3,0,0,0-.377.628,1.594,1.594,0,0,0-.126.754v4.272h-1.068v-6.03a4.754,4.754,0,0,0-.063-.942h1.005v1.131h.126a2.49,2.49,0,0,1,2.261-1.319,2.192,2.192,0,0,1,1.759.754,3.208,3.208,0,0,1,.628,2.136v4.272h-.126Z" transform="translate(-101.552 -19.022)" fill="#fff"/>
      <path id="Path_131" data-name="Path 131" d="M166.477,27.737H161.2V18h5.025v.879h-3.957v3.267h3.706v.879h-3.706v3.706h4.146l.063,1.005Z" transform="translate(-108.245 -17.497)" fill="#fff"/>
      <path id="Path_132" data-name="Path 132" d="M176.693,29.336h-1.256L174.369,27.7a2.259,2.259,0,0,1-.314-.565c-.126-.188-.251-.44-.44-.691h-.063a3.728,3.728,0,0,0-.251.5c-.126.188-.251.44-.44.754l-1.068,1.633H170.6l2.45-3.581L170.726,22.3h1.256l1.005,1.57a4.556,4.556,0,0,1,.314.565,5.525,5.525,0,0,1,.377.628h0a4.557,4.557,0,0,0,.314-.565c.126-.251.251-.377.377-.628l1.005-1.57h1.194l-2.324,3.392Z" transform="translate(-111.74 -19.096)" fill="#fff"/>
      <path id="Path_133" data-name="Path 133" d="M188.707,25.643a3.8,3.8,0,0,1-.251,1.508,5.324,5.324,0,0,1-.628,1.194,3.023,3.023,0,0,1-1.005.754,2.812,2.812,0,0,1-1.256.251,2.262,2.262,0,0,1-2.136-1.131h0v3.832h-1.068V23.319a6.827,6.827,0,0,0-.063-1.131h1.005v1.194h.063A2.654,2.654,0,0,1,185.818,22a2.151,2.151,0,0,1,1.131.251,3.659,3.659,0,0,1,.942.691,4.823,4.823,0,0,1,.628,1.131A7.125,7.125,0,0,1,188.707,25.643Zm-1.131.063a5.532,5.532,0,0,0-.126-1.068,2.32,2.32,0,0,0-.44-.879,1.536,1.536,0,0,0-.691-.565,2.006,2.006,0,0,0-.879-.188,1.673,1.673,0,0,0-.754.188,2.256,2.256,0,0,0-.628.44,1.626,1.626,0,0,0-.44.691,2.007,2.007,0,0,0-.188.879V26.46a3.183,3.183,0,0,0,.126.817,1.436,1.436,0,0,0,.44.628,2.256,2.256,0,0,0,.628.44,1.739,1.739,0,0,0,.817.188,1.827,1.827,0,0,0,1.57-.754A3.516,3.516,0,0,0,187.577,25.706Z" transform="translate(-116.09 -18.985)" fill="#fff"/>
      <path id="Path_134" data-name="Path 134" d="M200.13,25.4a1.394,1.394,0,0,1-.063.565h-4.837a3.139,3.139,0,0,0,.628,1.947,2.364,2.364,0,0,0,1.759.691,4.59,4.59,0,0,0,1.885-.377l.188.817a5.015,5.015,0,0,1-2.261.44,3.2,3.2,0,0,1-1.382-.251,3.285,3.285,0,0,1-1.068-.754,2.513,2.513,0,0,1-.628-1.131,4.948,4.948,0,0,1-.251-1.445,3.8,3.8,0,0,1,.251-1.508,3.6,3.6,0,0,1,.628-1.194,3.024,3.024,0,0,1,1.005-.754A2.914,2.914,0,0,1,197.3,22.2a2.549,2.549,0,0,1,1.194.251,3.055,3.055,0,0,1,.879.691,3.186,3.186,0,0,1,.565,1.005A3.777,3.777,0,0,1,200.13,25.4Zm-1.068-.251a2.341,2.341,0,0,0-.44-1.57,1.622,1.622,0,0,0-1.319-.565,1.5,1.5,0,0,0-1.319.628,2.543,2.543,0,0,0-.628,1.57l3.706-.063Z" transform="translate(-120.478 -19.059)" fill="#fff"/>
      <path id="Path_135" data-name="Path 135" d="M209.566,23.305h-.377a1.266,1.266,0,0,0-.691.188,2.035,2.035,0,0,0-.565.5,4.184,4.184,0,0,0-.377.754,4.275,4.275,0,0,0-.126.942v3.769h-1.068v-5.9a6.093,6.093,0,0,0-.063-1.068h.942V23.87h.063a3.564,3.564,0,0,1,.754-1.131,1.983,1.983,0,0,1,1.194-.44h.314v1.005Z" transform="translate(-125.014 -19.096)" fill="#fff"/>
      <path id="Path_136" data-name="Path 136" d="M216.758,22.25h-1.822v3.957c0,.942.314,1.382.942,1.382a2.343,2.343,0,0,0,.754-.126l.063.879a2.707,2.707,0,0,1-1.068.188,1.8,1.8,0,0,1-1.319-.5,2.688,2.688,0,0,1-.44-1.759V22.313H212.8v-.879h1.068V20.177l1.068-.377v1.633h1.822Z" transform="translate(-127.431 -18.167)" fill="#fff"/>
    </g>
    <path id="Path_137" data-name="Path 137" d="M32.432,29.047A22.264,22.264,0,0,1,29.668,34.7c-1.633,2.45-3.392,4.837-6.093,4.9-2.638.063-3.518-1.57-6.533-1.57s-4.02,1.508-6.533,1.633c-2.638.126-4.586-2.638-6.282-5.025C.835,29.738-1.8,20.693,1.714,14.662A9.761,9.761,0,0,1,9.943,9.7c2.576-.063,4.963,1.7,6.533,1.7S21,9.26,24.077,9.574a9.291,9.291,0,0,1,7.287,3.957,8.91,8.91,0,0,0-4.272,7.538,8.891,8.891,0,0,0,5.339,7.978M22.067,6.245A8.824,8.824,0,0,0,24.14-.1a8.819,8.819,0,0,0-7.978,9.171A7.442,7.442,0,0,0,22.067,6.245Z" transform="translate(1362.952 3408.3)" fill="#fff"/>
    <g id="Group_280" data-name="Group 280" transform="translate(1359 3476.304)">
      <path id="Path_138" data-name="Path 138" d="M81.646,54.859H77.5V48.2h4.146v.754H78.317V51.09h3.141v.754H78.317V54.1h3.329Z" transform="translate(-77.5 -47.949)" fill="#fff"/>
      <path id="Path_139" data-name="Path 139" d="M85.6,52.334c0-1.508.817-2.513,2.073-2.513a1.72,1.72,0,0,1,1.57.879h.063V48h.817v6.847h-.817V54.03h-.063a1.72,1.72,0,0,1-1.57.879A2.279,2.279,0,0,1,85.6,52.334Zm.817,0c0,1.131.565,1.822,1.445,1.822s1.445-.691,1.445-1.822c0-1.068-.565-1.822-1.445-1.822S86.417,51.267,86.417,52.334Z" transform="translate(-80.512 -47.874)" fill="#fff"/>
      <path id="Path_140" data-name="Path 140" d="M98.846,55.9h-.817v-.817h-.063a1.6,1.6,0,0,1-1.57.879,1.621,1.621,0,0,1-1.7-1.822V51h.817v3.015c0,.817.377,1.256,1.131,1.256a1.24,1.24,0,0,0,1.319-1.382V51h.817v4.9Z" transform="translate(-83.895 -48.99)" fill="#fff"/>
      <path id="Path_141" data-name="Path 141" d="M106.418,52.57a1.2,1.2,0,0,0-1.256-.879c-.879,0-1.445.691-1.445,1.822s.565,1.822,1.445,1.822a1.14,1.14,0,0,0,1.256-.879h.817a1.955,1.955,0,0,1-2.073,1.633,2.272,2.272,0,0,1-2.261-2.576A2.251,2.251,0,0,1,105.161,51a1.962,1.962,0,0,1,2.073,1.633h-.817Z" transform="translate(-86.944 -48.99)" fill="#fff"/>
      <path id="Path_142" data-name="Path 142" d="M110.9,54.481c0-.879.628-1.382,1.822-1.445l1.445-.063v-.44c0-.565-.377-.942-1.068-.942a1.076,1.076,0,0,0-1.131.691h-.817c.063-.817.879-1.382,1.947-1.382,1.194,0,1.885.628,1.885,1.633v3.392h-.754v-.817H114.1a1.72,1.72,0,0,1-1.57.879A1.486,1.486,0,0,1,110.9,54.481Zm3.267-.44V53.6l-1.319.063c-.691.063-1.068.314-1.068.817s.44.754,1.005.754A1.244,1.244,0,0,0,114.167,54.041Z" transform="translate(-89.919 -48.953)" fill="#fff"/>
      <path id="Path_143" data-name="Path 143" d="M120.17,49v1.256h1.005v.691H120.17v2.827c0,.5.188.754.691.754h.377v.691c-.126,0-.314.063-.5.063-.942,0-1.382-.377-1.382-1.319V51.01H118.6v-.754h.754V49Z" transform="translate(-92.782 -48.246)" fill="#fff"/>
      <path id="Path_144" data-name="Path 144" d="M124.3,48.365a.565.565,0,1,1,.565.565Q124.3,48.836,124.3,48.365Zm.126,1.445h.817v4.9h-.817Z" transform="translate(-94.901 -47.8)" fill="#fff"/>
      <path id="Path_145" data-name="Path 145" d="M127.5,53.413a2.274,2.274,0,1,1,4.523,0,2.274,2.274,0,1,1-4.523,0Zm3.706,0c0-1.131-.5-1.822-1.445-1.822s-1.445.691-1.445,1.822.5,1.822,1.445,1.822S131.206,54.543,131.206,53.413Z" transform="translate(-96.091 -48.953)" fill="#fff"/>
      <path id="Path_146" data-name="Path 146" d="M136.4,50.963h.754v.817h.063a1.5,1.5,0,0,1,1.508-.879,1.621,1.621,0,0,1,1.7,1.822v3.2H139.6V52.91c0-.817-.377-1.256-1.131-1.256a1.257,1.257,0,0,0-1.256,1.382v2.89H136.4Z" transform="translate(-99.401 -48.953)" fill="#fff"/>
    </g>
  </g>
</svg>
