<svg xmlns="http://www.w3.org/2000/svg" width="93.409" height="76.646" viewBox="0 0 93.409 76.646">
  <g id="Group_730" data-name="Group 730" transform="translate(-1049 -3408.2)">
    <g id="Group_269" data-name="Group 269" transform="translate(1049 3474.419)">
      <path id="Path_97" data-name="Path 97" d="M84.254,54.887A2.151,2.151,0,0,1,84,56.018a4.459,4.459,0,0,1-.628.879,2.62,2.62,0,0,1-1.005.565,4.6,4.6,0,0,1-1.382.188,3.849,3.849,0,0,1-2.387-.628l.314-.879a4.235,4.235,0,0,0,2.136.628,2.351,2.351,0,0,0,1.57-.5,1.581,1.581,0,0,0,.565-1.256,1.564,1.564,0,0,0-.44-1.194A4.008,4.008,0,0,0,81.364,53c-1.7-.628-2.513-1.57-2.513-2.764A2.219,2.219,0,0,1,79.1,49.17a2.591,2.591,0,0,1,.628-.817,2.365,2.365,0,0,1,.942-.565,3.657,3.657,0,0,1,1.194-.188,4.216,4.216,0,0,1,2.073.44l-.314.879a3.187,3.187,0,0,0-1.759-.44,2.03,2.03,0,0,0-1.382.44,1.225,1.225,0,0,0-.5,1.131,1.394,1.394,0,0,0,.063.565,2.2,2.2,0,0,0,.314.5,1.368,1.368,0,0,0,.565.44,6.749,6.749,0,0,0,.942.44A9.448,9.448,0,0,1,83,52.563a3.984,3.984,0,0,1,.754.628,4.685,4.685,0,0,1,.44.754C84.191,54.259,84.254,54.573,84.254,54.887Z" transform="translate(-78.6 -47.286)" fill="#fff"/>
      <path id="Path_98" data-name="Path 98" d="M95.53,55.3a1.394,1.394,0,0,1-.063.565H90.631a3.139,3.139,0,0,0,.628,1.947,2.364,2.364,0,0,0,1.759.691A4.59,4.59,0,0,0,94.9,58.13l.188.817a5.015,5.015,0,0,1-2.261.44,3.2,3.2,0,0,1-1.382-.251,3.285,3.285,0,0,1-1.068-.754,2.513,2.513,0,0,1-.628-1.131,4.947,4.947,0,0,1-.251-1.445,3.8,3.8,0,0,1,.251-1.508,3.6,3.6,0,0,1,.628-1.194,3.024,3.024,0,0,1,1.005-.754A2.914,2.914,0,0,1,92.7,52.1a2.549,2.549,0,0,1,1.194.251,3.055,3.055,0,0,1,.879.691,3.186,3.186,0,0,1,.565,1.005A3.778,3.778,0,0,1,95.53,55.3ZM94.4,55.052a2.341,2.341,0,0,0-.44-1.57,1.622,1.622,0,0,0-1.319-.565,1.5,1.5,0,0,0-1.319.628,2.543,2.543,0,0,0-.628,1.57l3.706-.063Z" transform="translate(-82.653 -48.959)" fill="#fff"/>
      <path id="Path_99" data-name="Path 99" d="M104.867,53.205h-.377a1.266,1.266,0,0,0-.691.188,2.035,2.035,0,0,0-.565.5,4.183,4.183,0,0,0-.377.754,4.274,4.274,0,0,0-.126.942v3.769h-1.068v-5.9a6.094,6.094,0,0,0-.063-1.068h.942V53.77h.063a3.565,3.565,0,0,1,.754-1.131,1.983,1.983,0,0,1,1.194-.44h.314v1.005Z" transform="translate(-87.152 -48.996)" fill="#fff"/>
      <path id="Path_100" data-name="Path 100" d="M114.445,52.3l-2.7,6.973h-1.005L108.1,52.3h1.194l1.382,4.02a8.656,8.656,0,0,0,.377,1.005c.126.314.188.565.251.754h0c.063-.188.126-.44.188-.691s.251-.628.377-1.068l1.445-4.02Z" transform="translate(-89.569 -49.033)" fill="#fff"/>
      <path id="Path_101" data-name="Path 101" d="M121.245,48.554a.877.877,0,0,1-.188.565.768.768,0,0,1-.565.188.713.713,0,0,1-.5-.188.768.768,0,0,1-.188-.565,1.013,1.013,0,0,1,.188-.565.713.713,0,0,1,.5-.188.877.877,0,0,1,.565.188A.58.58,0,0,1,121.245,48.554Zm-.188,9.046h-1.068V50.627h1.068Z" transform="translate(-93.919 -47.36)" fill="#fff"/>
      <path id="Path_102" data-name="Path 102" d="M129.488,53.219a3.023,3.023,0,0,0-2.513-.188,1.715,1.715,0,0,0-.754.565,4,4,0,0,0-.5.879,2.934,2.934,0,0,0-.188,1.068,3.557,3.557,0,0,0,.188,1.131,4,4,0,0,0,.5.879,2.167,2.167,0,0,0,.754.565,2.6,2.6,0,0,0,1.005.188,3.817,3.817,0,0,0,1.57-.377l.188.817a4.683,4.683,0,0,1-1.947.377,3.38,3.38,0,0,1-1.382-.251,4.472,4.472,0,0,1-1.068-.691,3.419,3.419,0,0,1-.691-1.131,3.685,3.685,0,0,1-.251-1.445,3.8,3.8,0,0,1,.251-1.508,4.779,4.779,0,0,1,.754-1.194,3.565,3.565,0,0,1,1.131-.754,4.448,4.448,0,0,1,3.267.126Z" transform="translate(-95.63 -48.885)" fill="#fff"/>
      <path id="Path_103" data-name="Path 103" d="M140.23,55.3a1.394,1.394,0,0,1-.063.565h-4.837a3.138,3.138,0,0,0,.628,1.947,2.364,2.364,0,0,0,1.759.691,4.59,4.59,0,0,0,1.885-.377l.188.817a5.015,5.015,0,0,1-2.261.44,3.2,3.2,0,0,1-1.382-.251,3.285,3.285,0,0,1-1.068-.754,2.512,2.512,0,0,1-.628-1.131,4.947,4.947,0,0,1-.251-1.445,3.8,3.8,0,0,1,.251-1.508,3.6,3.6,0,0,1,.628-1.194,3.023,3.023,0,0,1,1.005-.754A2.914,2.914,0,0,1,137.4,52.1a2.549,2.549,0,0,1,1.194.251,3.055,3.055,0,0,1,.879.691,3.186,3.186,0,0,1,.565,1.005A3.778,3.778,0,0,1,140.23,55.3Zm-1.068-.251a2.341,2.341,0,0,0-.44-1.57,1.622,1.622,0,0,0-1.319-.565,1.5,1.5,0,0,0-1.319.628,2.543,2.543,0,0,0-.628,1.57l3.706-.063Z" transform="translate(-99.274 -48.959)" fill="#fff"/>
      <path id="Path_104" data-name="Path 104" d="M157.754,50.527a2.914,2.914,0,0,1-.251,1.319,3.832,3.832,0,0,1-.754,1.005,4.823,4.823,0,0,1-1.131.628,3.664,3.664,0,0,1-1.445.188,3.226,3.226,0,0,1-1.005-.126V57.5H152.1V47.888a6.19,6.19,0,0,1,1.068-.126c.377,0,.754-.063,1.194-.063a3.82,3.82,0,0,1,2.576.754A2.793,2.793,0,0,1,157.754,50.527Zm-1.068.126a1.708,1.708,0,0,0-.628-1.508,2.859,2.859,0,0,0-1.7-.5,5.782,5.782,0,0,0-1.194.126v3.957a4.51,4.51,0,0,0,1.068.126,2.748,2.748,0,0,0,1.822-.565A2.388,2.388,0,0,0,156.686,50.652Z" transform="translate(-105.929 -47.323)" fill="#fff"/>
      <path id="Path_105" data-name="Path 105" d="M166.667,53.205h-.377a1.266,1.266,0,0,0-.691.188,2.035,2.035,0,0,0-.565.5,4.185,4.185,0,0,0-.377.754,4.274,4.274,0,0,0-.126.942v3.769h-1.068v-5.9a6.093,6.093,0,0,0-.063-1.068h.942V53.77h.063a3.565,3.565,0,0,1,.754-1.131,1.983,1.983,0,0,1,1.194-.44h.314Z" transform="translate(-110.131 -48.996)" fill="#fff"/>
      <path id="Path_106" data-name="Path 106" d="M176.159,55.581a3.8,3.8,0,0,1-.251,1.508,4.548,4.548,0,0,1-.691,1.194,3.285,3.285,0,0,1-1.068.754,3.381,3.381,0,0,1-1.382.251,2.914,2.914,0,0,1-1.319-.251,3.023,3.023,0,0,1-1.005-.754,3.419,3.419,0,0,1-.691-1.131,3.685,3.685,0,0,1-.251-1.445,4,4,0,0,1,.251-1.508,4.548,4.548,0,0,1,.691-1.194,2.558,2.558,0,0,1,1.068-.754A3.381,3.381,0,0,1,172.892,52a2.913,2.913,0,0,1,1.319.251,3.024,3.024,0,0,1,1.005.754,2.512,2.512,0,0,1,.628,1.131A3.012,3.012,0,0,1,176.159,55.581Zm-1.131.063a5.533,5.533,0,0,0-.126-1.068,3.838,3.838,0,0,0-.44-.879,1.964,1.964,0,0,0-.691-.565,2.146,2.146,0,0,0-1.759,0,1.964,1.964,0,0,0-.691.565,3.837,3.837,0,0,0-.44.879,3.119,3.119,0,0,0-.126,1.131,2.935,2.935,0,0,0,.188,1.068,3.838,3.838,0,0,0,.44.879,3.292,3.292,0,0,0,.691.628,2.045,2.045,0,0,0,.879.251,2.006,2.006,0,0,0,.879-.188,1.628,1.628,0,0,0,.691-.628,3.839,3.839,0,0,0,.44-.879C174.965,56.4,175.028,56.02,175.028,55.643Z" transform="translate(-112.399 -48.922)" fill="#fff"/>
      <path id="Path_107" data-name="Path 107" d="M187.445,52.3l-2.7,6.973h-1.005L181.1,52.3h1.194l1.382,4.02a8.651,8.651,0,0,0,.377,1.005c.126.314.188.565.251.754h0c.063-.188.126-.44.188-.691s.251-.628.377-1.068l1.445-4.02Z" transform="translate(-116.712 -49.033)" fill="#fff"/>
      <path id="Path_108" data-name="Path 108" d="M194.345,48.554a.877.877,0,0,1-.188.565.768.768,0,0,1-.565.188.713.713,0,0,1-.5-.188.768.768,0,0,1-.188-.565,1.013,1.013,0,0,1,.188-.565.713.713,0,0,1,.5-.188.877.877,0,0,1,.565.188A.768.768,0,0,1,194.345,48.554Zm-.188,9.046h-1.068V50.627h1.068Z" transform="translate(-121.1 -47.36)" fill="#fff"/>
      <path id="Path_109" data-name="Path 109" d="M202.8,57.339V56.146h-.063a2.367,2.367,0,0,1-2.324,1.382,2.549,2.549,0,0,1-1.194-.251,2.781,2.781,0,0,1-.942-.754,4.823,4.823,0,0,1-.628-1.131,4.947,4.947,0,0,1-.251-1.445,3.8,3.8,0,0,1,.251-1.508,5.325,5.325,0,0,1,.628-1.194,3.024,3.024,0,0,1,1.005-.754,2.813,2.813,0,0,1,1.256-.251,2.168,2.168,0,0,1,2.073,1.068h0V47.1h1.068v9.36a3.318,3.318,0,0,0,.063.817l-.942.063Zm-.188-4.146a3.182,3.182,0,0,0-.126-.817,2.437,2.437,0,0,0-.377-.691,2.256,2.256,0,0,0-.628-.44,1.593,1.593,0,0,0-.754-.126,2.006,2.006,0,0,0-.879.188,1.964,1.964,0,0,0-.691.565,3.838,3.838,0,0,0-.44.879,3.479,3.479,0,0,0-.126,1.131,6.922,6.922,0,0,0,.126,1.131,3.838,3.838,0,0,0,.44.879,1.536,1.536,0,0,0,.691.565,2.217,2.217,0,0,0,.879.188,1.739,1.739,0,0,0,.817-.188,2.256,2.256,0,0,0,.628-.44,1.5,1.5,0,0,0,.377-.691,3.183,3.183,0,0,0,.126-.817l-.063-1.319Z" transform="translate(-122.773 -47.1)" fill="#fff"/>
      <path id="Path_110" data-name="Path 110" d="M215.93,55.3a1.394,1.394,0,0,1-.063.565h-4.837a3.139,3.139,0,0,0,.628,1.947,2.364,2.364,0,0,0,1.759.691,4.59,4.59,0,0,0,1.885-.377l.188.817a5.014,5.014,0,0,1-2.261.44,3.2,3.2,0,0,1-1.382-.251,3.284,3.284,0,0,1-1.068-.754,2.512,2.512,0,0,1-.628-1.131,4.948,4.948,0,0,1-.251-1.445,3.8,3.8,0,0,1,.251-1.508,3.6,3.6,0,0,1,.628-1.194,3.023,3.023,0,0,1,1.005-.754A2.914,2.914,0,0,1,213.1,52.1a2.549,2.549,0,0,1,1.193.251,3.055,3.055,0,0,1,.879.691,3.186,3.186,0,0,1,.565,1.005A3.778,3.778,0,0,1,215.93,55.3Zm-1.068-.251a2.341,2.341,0,0,0-.44-1.57,1.622,1.622,0,0,0-1.319-.565,1.5,1.5,0,0,0-1.319.628,2.543,2.543,0,0,0-.628,1.57l3.706-.063Z" transform="translate(-127.421 -48.959)" fill="#fff"/>
      <path id="Path_111" data-name="Path 111" d="M225.367,53.205h-.377a1.266,1.266,0,0,0-.691.188,2.035,2.035,0,0,0-.565.5,4.185,4.185,0,0,0-.377.754,4.275,4.275,0,0,0-.126.942v3.769h-1.068v-5.9a6.094,6.094,0,0,0-.063-1.068h.942V53.77h.063a3.565,3.565,0,0,1,.754-1.131,1.983,1.983,0,0,1,1.194-.44h.314Z" transform="translate(-131.957 -48.996)" fill="#fff"/>
    </g>
    <path id="Path_112" data-name="Path 112" d="M34.132,31.347A22.264,22.264,0,0,1,31.368,37c-1.633,2.45-3.392,4.837-6.093,4.9-2.638.063-3.518-1.57-6.533-1.57s-4.02,1.508-6.533,1.633c-2.638.126-4.586-2.638-6.282-5.025C2.535,32.038-.1,22.993,3.414,16.962A9.761,9.761,0,0,1,11.643,12c2.576-.063,4.963,1.7,6.533,1.7s4.523-2.136,7.6-1.822a9.291,9.291,0,0,1,7.287,3.957,8.91,8.91,0,0,0-4.272,7.538,8.891,8.891,0,0,0,5.339,7.978M23.767,8.545A8.824,8.824,0,0,0,25.84,2.2a8.819,8.819,0,0,0-7.978,9.171A7.441,7.441,0,0,0,23.767,8.545Z" transform="translate(1078.252 3406)" fill="#fff"/>
    <g id="Group_371" data-name="Group 371" transform="translate(14.975)">
      <g id="Group_268" data-name="Group 268" transform="translate(1049.025 3457.081)">
        <path id="Path_88" data-name="Path 88" d="M84.921,30.037,83.854,26.9H80.4l-1.068,3.141H78.2L81.467,20.3h1.256l3.267,9.737Zm-4.272-4.02h3.015l-1.005-2.89c-.063-.188-.126-.44-.251-.754a4.454,4.454,0,0,1-.251-1.068h0c-.126.377-.188.754-.251,1.005a2.119,2.119,0,0,1-.251.754Z" transform="translate(-78.2 -19.797)" fill="#fff"/>
        <path id="Path_89" data-name="Path 89" d="M97.411,31.71V30.579h-.126A2.446,2.446,0,0,1,95.024,31.9a1.985,1.985,0,0,1-1.7-.754,3.73,3.73,0,0,1-.628-2.261V24.8h1.068v3.895c0,1.57.5,2.324,1.57,2.324a2.258,2.258,0,0,0,.691-.126,1.782,1.782,0,0,0,.565-.377,1.3,1.3,0,0,0,.377-.628,1.594,1.594,0,0,0,.126-.754V24.8h1.068v6.093a4.755,4.755,0,0,0,.063.942h-.817V31.71Z" transform="translate(-83.591 -21.471)" fill="#fff"/>
        <path id="Path_90" data-name="Path 90" d="M107.757,24.55h-1.822v3.957c0,.942.314,1.382.942,1.382a2.343,2.343,0,0,0,.754-.126l.063.879a2.707,2.707,0,0,1-1.068.188,1.8,1.8,0,0,1-1.319-.5,2.688,2.688,0,0,1-.44-1.759V24.613H103.8v-.879h1.068V22.477l1.068-.377v1.633h1.822Z" transform="translate(-87.719 -20.467)" fill="#fff"/>
        <path id="Path_91" data-name="Path 91" d="M118.191,29.776H117.06V25.693c0-1.445-.565-2.136-1.633-2.136a1.266,1.266,0,0,0-.691.188,1.368,1.368,0,0,0-.565.44,1.3,1.3,0,0,0-.377.628,1.594,1.594,0,0,0-.126.754v4.272H112.6V19.6h1.068V24h0a2.705,2.705,0,0,1,.942-.942,2.207,2.207,0,0,1,1.256-.314,2.281,2.281,0,0,1,1.759.754,3.208,3.208,0,0,1,.628,2.136l-.063,4.146Z" transform="translate(-90.991 -19.537)" fill="#fff"/>
        <path id="Path_92" data-name="Path 92" d="M130.559,27.981a3.8,3.8,0,0,1-.251,1.508,4.548,4.548,0,0,1-.691,1.194,3.284,3.284,0,0,1-1.068.754,3.38,3.38,0,0,1-1.382.251,2.913,2.913,0,0,1-1.319-.251,3.024,3.024,0,0,1-1.005-.754,3.42,3.42,0,0,1-.691-1.131,3.686,3.686,0,0,1-.251-1.445,4,4,0,0,1,.251-1.508,4.548,4.548,0,0,1,.691-1.194,2.558,2.558,0,0,1,1.068-.754,3.38,3.38,0,0,1,1.382-.251,2.913,2.913,0,0,1,1.319.251,3.024,3.024,0,0,1,1.005.754,2.512,2.512,0,0,1,.628,1.131A3.012,3.012,0,0,1,130.559,27.981Zm-1.131.063a5.533,5.533,0,0,0-.126-1.068,3.838,3.838,0,0,0-.44-.879,1.964,1.964,0,0,0-.691-.565,2.146,2.146,0,0,0-1.759,0,1.964,1.964,0,0,0-.691.565,3.838,3.838,0,0,0-.44.879,3.119,3.119,0,0,0-.126,1.131,2.934,2.934,0,0,0,.188,1.068,3.838,3.838,0,0,0,.44.879,3.292,3.292,0,0,0,.691.628,2.045,2.045,0,0,0,.879.251,2.006,2.006,0,0,0,.879-.188,1.627,1.627,0,0,0,.691-.628,3.838,3.838,0,0,0,.44-.879C129.365,28.8,129.428,28.42,129.428,28.043Z" transform="translate(-95.192 -21.322)" fill="#fff"/>
        <path id="Path_93" data-name="Path 93" d="M140.367,25.605h-.377a1.266,1.266,0,0,0-.691.188,2.035,2.035,0,0,0-.565.5,4.184,4.184,0,0,0-.377.754,4.274,4.274,0,0,0-.126.942v3.769h-1.068v-5.9a6.093,6.093,0,0,0-.063-1.068h.942V26.17h.063a3.564,3.564,0,0,1,.754-1.131,1.983,1.983,0,0,1,1.194-.44h.314v1.005Z" transform="translate(-100.101 -21.396)" fill="#fff"/>
        <path id="Path_94" data-name="Path 94" d="M145.545,20.954a.877.877,0,0,1-.188.565.768.768,0,0,1-.565.188.713.713,0,0,1-.5-.188.768.768,0,0,1-.188-.565,1.013,1.013,0,0,1,.188-.565.713.713,0,0,1,.5-.188.877.877,0,0,1,.565.188A.768.768,0,0,1,145.545,20.954ZM145.356,30h-1.068V23.027h1.068Z" transform="translate(-102.703 -19.76)" fill="#fff"/>
        <path id="Path_95" data-name="Path 95" d="M163.93,27.7a1.394,1.394,0,0,1-.063.565h-4.837a3.138,3.138,0,0,0,.628,1.947,2.364,2.364,0,0,0,1.759.691,4.59,4.59,0,0,0,1.884-.377l.188.817a5.015,5.015,0,0,1-2.261.44,3.2,3.2,0,0,1-1.382-.251,3.285,3.285,0,0,1-1.068-.754,2.512,2.512,0,0,1-.628-1.131,4.947,4.947,0,0,1-.251-1.445,3.8,3.8,0,0,1,.251-1.508,3.6,3.6,0,0,1,.628-1.194,3.024,3.024,0,0,1,1.005-.754A2.914,2.914,0,0,1,161.1,24.5a2.549,2.549,0,0,1,1.194.251,3.055,3.055,0,0,1,.879.691,3.186,3.186,0,0,1,.565,1.005A3.777,3.777,0,0,1,163.93,27.7Zm-1.131-.251a2.341,2.341,0,0,0-.44-1.57,1.622,1.622,0,0,0-1.319-.565,1.5,1.5,0,0,0-1.319.628,2.543,2.543,0,0,0-.628,1.57l3.706-.063Z" transform="translate(-107.835 -21.359)" fill="#fff"/>
        <path id="Path_96" data-name="Path 96" d="M174.5,29.739V28.546h-.063a2.367,2.367,0,0,1-2.324,1.382,2.549,2.549,0,0,1-1.194-.251,2.781,2.781,0,0,1-.942-.754,4.822,4.822,0,0,1-.628-1.131,4.947,4.947,0,0,1-.251-1.445,3.8,3.8,0,0,1,.251-1.508,5.324,5.324,0,0,1,.628-1.194,3.023,3.023,0,0,1,1.005-.754,2.812,2.812,0,0,1,1.256-.251,2.168,2.168,0,0,1,2.073,1.068h0V19.5h1.068v9.36a3.319,3.319,0,0,0,.063.817H174.5v.063Zm-.126-4.146a3.183,3.183,0,0,0-.126-.817,2.438,2.438,0,0,0-.377-.691,2.256,2.256,0,0,0-.628-.44,1.593,1.593,0,0,0-.754-.126,2.006,2.006,0,0,0-.879.188,1.964,1.964,0,0,0-.691.565,3.837,3.837,0,0,0-.44.879,3.479,3.479,0,0,0-.126,1.131,6.925,6.925,0,0,0,.126,1.131,3.837,3.837,0,0,0,.44.879,1.536,1.536,0,0,0,.691.565,2.217,2.217,0,0,0,.879.188,1.739,1.739,0,0,0,.817-.188,2.256,2.256,0,0,0,.628-.44,1.5,1.5,0,0,0,.377-.691,3.183,3.183,0,0,0,.126-.817l-.063-1.319Z" transform="translate(-111.999 -19.5)" fill="#fff"/>
      </g>
      <path id="Path_113" data-name="Path 113" d="M153.4,29.614a1.911,1.911,0,0,1-.691,1.508,2.748,2.748,0,0,1-1.822.565,3.663,3.663,0,0,1-1.885-.5l.314-.879a3.114,3.114,0,0,0,1.633.5,1.6,1.6,0,0,0,1.005-.314,1.013,1.013,0,0,0,.377-.817,1.04,1.04,0,0,0-.314-.754,3.55,3.55,0,0,0-1.005-.565c-1.194-.5-1.822-1.131-1.822-1.947a1.739,1.739,0,0,1,.188-.817,2.256,2.256,0,0,1,.44-.628,2.594,2.594,0,0,1,.691-.44,2.442,2.442,0,0,1,.942-.126,2.768,2.768,0,0,1,1.633.44l-.314.817a2.69,2.69,0,0,0-1.382-.377,1.243,1.243,0,0,0-.879.314,1.04,1.04,0,0,0-.314.754.8.8,0,0,0,.063.377c.063.126.126.188.188.314.126.126.251.188.377.314a5.838,5.838,0,0,0,.628.314C152.769,28.043,153.4,28.734,153.4,29.614Z" transform="translate(944.5 3435.759)" fill="#fff"/>
    </g>
  </g>
</svg>
